<svg id="7d04e0cf-9cc1-4144-ba6e-55e317d1c1b6" data-name="Vrstva 1" xmlns="http://www.w3.org/2000/svg" width="100" height="22" viewBox="0 0 100 22"><defs><style>.\36 df95f3a-a9c1-4d41-90a2-40e4ce329ff7{opacity:0.92;}.d38d7511-b5cf-45a8-8efe-fd3c0647ec0c{fill:#00ffc8;}</style></defs><title>hardart</title><g class="6df95f3a-a9c1-4d41-90a2-40e4ce329ff7"><path class="d38d7511-b5cf-45a8-8efe-fd3c0647ec0c" d="M14.42,11.9v8.78h-5v-8.2c0-1.68-.59-2.54-1.9-2.54C6,9.94,5,11,5,12.89v7.79H0V.83H5V7.05a6.27,6.27,0,0,1,3.9-1.39C12.27,5.66,14.42,8.12,14.42,11.9Z"/><path class="d38d7511-b5cf-45a8-8efe-fd3c0647ec0c" d="M32,6.08V20.66H28.09l-.43-1a6.89,6.89,0,0,1-4.4,1.53,7.44,7.44,0,0,1-7.65-7.79,7.4,7.4,0,0,1,7.65-7.73,6.9,6.9,0,0,1,4.46,1.57l.51-1.13Zm-4.78,7.3a3.27,3.27,0,1,0-6.53,0,3.27,3.27,0,1,0,6.53,0Z"/><path class="d38d7511-b5cf-45a8-8efe-fd3c0647ec0c" d="M43.86,6v4.6h-2c-1.78,0-2.52.78-2.52,2.64v7.42h-5V6.09h3.36l.78,1.62a4.89,4.89,0,0,1,4-1.69Z"/><path class="d38d7511-b5cf-45a8-8efe-fd3c0647ec0c" d="M60.72.83V20.68H57l-.47-1.08a6.74,6.74,0,0,1-4.4,1.57,7.44,7.44,0,0,1-7.67-7.78,7.43,7.43,0,0,1,7.67-7.77,6.79,6.79,0,0,1,3.62,1V.83ZM56.06,13.39a3.27,3.27,0,1,0-6.53,0,3.27,3.27,0,1,0,6.53,0Z"/><path class="d38d7511-b5cf-45a8-8efe-fd3c0647ec0c" d="M78.28,6.08V20.66H74.39l-.43-1a6.89,6.89,0,0,1-4.4,1.53,7.44,7.44,0,0,1-7.65-7.79,7.4,7.4,0,0,1,7.65-7.73A6.9,6.9,0,0,1,74,7.21l.51-1.13Zm-4.78,7.3a3.27,3.27,0,1,0-6.53,0,3.27,3.27,0,1,0,6.53,0Z"/><path class="d38d7511-b5cf-45a8-8efe-fd3c0647ec0c" d="M98.07,16.28a1.55,1.55,0,0,1-1.69-1.68v-4h3.54V6.09H96.25V1.9h-1L91.36,6v9.45c0,3.24,2,5.21,5.18,5.21H100v-4.4Z"/><path class="d38d7511-b5cf-45a8-8efe-fd3c0647ec0c" d="M90.16,6v4.6h-2c-1.78,0-2.52.78-2.52,2.64v7.42h-5V6.09H84l.78,1.62a4.89,4.89,0,0,1,4-1.69Z"/></g></svg>