<?xml version="1.0" encoding="utf-8"?>
<!-- Generator: Adobe Illustrator 22.0.0, SVG Export Plug-In . SVG Version: 6.00 Build 0)  -->
<svg version="1.1" id="_x35_e3b93e7-c8b7-46aa-9203-e7c9ca867d21"
	 xmlns="http://www.w3.org/2000/svg" xmlns:xlink="http://www.w3.org/1999/xlink" x="0px" y="0px" viewBox="0 0 260 72"
	 style="enable-background:new 0 0 260 72;" xml:space="preserve">
<style type="text/css">
	.st0{fill:#A9CF45;}
	.st1{fill:#FFD345;}
	.st2{fill:#EA268F;}
	.st3{fill:#020202;}
	.st4{fill:#9B9B9B;}
</style>
<title>region-food</title>
<path class="st0" d="M23.6,63c11-7.5,20.6-16.8,28.5-27.5C42.3,40,35.2,29.9,23,48.3C12.8,63.8,13.6,71,13.6,71s29.6-0.6,34.8-15.5
	c3.3-9.5,3.4-13.7,5.7-19.5C45.8,46.8,35.4,56,23.6,63"/>
<path class="st1" d="M31.5,9.2c6.1,8.9,13.7,16.8,22.4,23.2c-3.7-8,4.6-13.8-10.4-23.7C30.8,0.4,25,1,25,1s0.5,24.1,12.6,28.3
	c7.7,2.7,11.1,2.8,15.9,4.7C44.7,27.2,37.2,18.7,31.5,9.2"/>
<path class="st2" d="M9.7,31.5c8.8,1.6,17.7,1.8,26.5,0.5c-6.8-2.5-5.4-10.7-19.9-7.7C4.2,26.8,1.1,30.5,1.1,30.5S15.5,44.3,25,39.7
	c6.1-2.9,8.1-4.9,12-6.5C27.9,34.3,18.6,33.8,9.7,31.5"/>
<path class="st3" d="M69,39.3c-0.3,0-0.7,0-1.1,0h-5.7v7.3h-4v-24H68c6.2,0,9.7,3,9.7,8.2c0,3.8-1.8,6.6-5,7.8l5.4,8h-4.6L69,39.3z
	 M67.9,35.7c3.7,0,5.8-1.6,5.8-4.8s-2.1-4.7-5.8-4.7h-5.7v9.5H67.9z"/>
<path class="st3" d="M98.8,39H85c0.5,2.7,2.9,4.7,5.7,4.6c1.9,0,3.8-0.7,5.1-2.1l2.1,2.2c-2,2.1-4.7,3.2-7.6,3.1
	c-5.6,0-9.4-3.8-9.4-9.3c-0.2-4.9,3.5-9.1,8.4-9.3c0.3,0,0.5,0,0.8,0C96.6,28.2,99.2,32.4,98.8,39 M95.3,36.1c0-2.6-2-4.7-4.6-4.7
	c-0.1,0-0.3,0-0.4,0c-2.8-0.1-5.1,2-5.4,4.7H95.3z"/>
<path class="st3" d="M119.4,44.8c0,5.3-3.7,8.5-9.5,8.5c-2.7,0-5.4-0.9-7.6-2.4l1.7-2.8c1.6,1.3,3.7,2,5.7,2c3.5,0,5.7-2,5.7-5.2
	v-2.3c-1.3,2-3.6,3.2-6,3.1c-5,0-8.2-3.6-8.2-8.8s3.3-8.6,8.1-8.7c2.5-0.2,4.8,1,6.2,3.1v-3h3.9L119.4,44.8z M115.5,37
	c0-3.3-2.2-5.6-5.3-5.6s-5.3,2.3-5.3,5.6s2.2,5.6,5.3,5.6S115.5,40.3,115.5,37"/>
<path class="st3" d="M129.1,23.1c-0.1,1.3-1.1,2.3-2.4,2.2c-1.3-0.1-2.3-1.1-2.2-2.4c0.1-1.2,1.1-2.2,2.3-2.2c1.3,0,2.3,1,2.3,2.2
	C129.1,23,129.1,23.1,129.1,23.1 M124.9,28.3h3.9v18.3h-3.9V28.3z"/>
<path class="st3" d="M152,37.5c0,5.5-3.9,9.3-9.5,9.3S133,43,133,37.5s3.9-9.3,9.5-9.3S152,31.9,152,37.5 M136.9,37.5
	c0,3.5,2.3,5.9,5.6,5.9s5.5-2.4,5.5-5.9s-2.3-5.9-5.6-5.9S136.9,34,136.9,37.5"/>
<path class="st3" d="M173.5,35.2v11.4h-3.9V36.3c0.2-2.2-1.4-4.2-3.7-4.4c-0.2,0-0.5,0-0.7,0c-2.8,0-5.1,2.2-5.2,5v9.7h-4V28.3h4
	v3.5c1.3-2.5,3.6-3.6,6.7-3.6C171,28.2,173.5,30.9,173.5,35.2"/>
<polygon class="st4" points="183.1,26.2 183.1,33.1 194,33.1 194,36.7 183.1,36.7 183.1,46.6 179.1,46.6 179.1,22.6 195.2,22.6 
	195.2,26.2 "/>
<path class="st4" d="M215.9,37.5c0,5.5-3.9,9.3-9.5,9.3s-9.5-3.8-9.5-9.3s3.9-9.3,9.5-9.3S215.9,31.9,215.9,37.5 M200.8,37.5
	c0,3.5,2.3,5.9,5.6,5.9s5.6-2.4,5.6-5.9s-2.3-5.9-5.6-5.9S200.8,34,200.8,37.5"/>
<path class="st4" d="M237.3,37.5c0,5.5-3.9,9.3-9.5,9.3s-9.5-3.8-9.5-9.3s3.9-9.3,9.5-9.3S237.3,31.9,237.3,37.5 M222.2,37.5
	c0,3.5,2.3,5.9,5.6,5.9s5.6-2.4,5.6-5.9s-2.3-5.9-5.6-5.9S222.2,34,222.2,37.5"/>
<path class="st4" d="M258.9,46.6h-4v-3.1c-1.4,2.2-3.8,3.5-6.4,3.3c-5.3,0-8.8-3.8-8.8-9.4s3.5-9.2,8.7-9.2c2.6-0.1,5.1,1.1,6.5,3.3
	V21.1h4V46.6z M254.9,37.5c0-3.5-2.3-6-5.6-6s-5.6,2.5-5.6,6s2.3,5.9,5.6,5.9S254.9,41,254.9,37.5"/>
</svg>
